<mxfile host="www.draw.io" modified="2019-10-24T23:02:32.743Z" agent="Mozilla/5.0 (Macintosh; Intel Mac OS X 10_13_6) AppleWebKit/605.1.15 (KHTML, like Gecko) Version/13.0.1 Safari/605.1.15" etag="Na-n3scKsernr_-yhqEA" version="12.1.5" type="github" pages="1">
  <diagram id="6bPK-o6ji4KOMCHuZaEI" name="Page-1">
    <mxGraphModel dx="746" dy="466" grid="1" gridSize="10" guides="1" tooltips="1" connect="1" arrows="1" fold="1" page="1" pageScale="1" pageWidth="1100" pageHeight="850" math="0" shadow="0">
      <root>
        <mxCell id="0"/>
        <mxCell id="1" parent="0"/>
        <mxCell id="t-6TxCW-OSi5k4KCfTvf-3" value="" style="edgeStyle=orthogonalEdgeStyle;rounded=0;orthogonalLoop=1;jettySize=auto;html=1;" edge="1" parent="1" source="t-6TxCW-OSi5k4KCfTvf-1">
          <mxGeometry relative="1" as="geometry">
            <mxPoint x="190" y="50" as="targetPoint"/>
          </mxGeometry>
        </mxCell>
        <mxCell id="t-6TxCW-OSi5k4KCfTvf-1" value="Actor" style="shape=umlActor;verticalLabelPosition=bottom;labelBackgroundColor=#ffffff;verticalAlign=top;html=1;outlineConnect=0;" vertex="1" parent="1">
          <mxGeometry x="20" y="20" width="30" height="60" as="geometry"/>
        </mxCell>
        <mxCell id="t-6TxCW-OSi5k4KCfTvf-4" value="register" style="text;html=1;resizable=0;points=[];autosize=1;align=left;verticalAlign=top;spacingTop=-4;" vertex="1" parent="1">
          <mxGeometry x="72" y="27" width="60" height="20" as="geometry"/>
        </mxCell>
        <mxCell id="t-6TxCW-OSi5k4KCfTvf-5" value="fill information form&amp;nbsp;" style="text;html=1;resizable=0;points=[];autosize=1;align=left;verticalAlign=top;spacingTop=-4;" vertex="1" parent="1">
          <mxGeometry x="60" y="60" width="120" height="20" as="geometry"/>
        </mxCell>
      </root>
    </mxGraphModel>
  </diagram>
</mxfile>
